<svg t="1685151730482" class="icon" viewBox="0 0 1024 1024" version="1.1" xmlns="http://www.w3.org/2000/svg" p-id="44748" width="64" height="64"><path d="M185.107692 504.127015V791.630769l327.061662 106.338462L838.892308 790.433477V504.123077l-334.769231 133.907692z"></path><path d="M63.015385 311.138462l409.6-173.292308c28.408123-11.945354 55.977354-11.945354 82.707692 0l417.476923 181.169231c38.959262 23.997046 37.643815 46.316308-3.938462 66.953846l-456.861538 185.107692L66.953846 389.907692C11.862646 368.769969 10.555077 342.516185 63.015385 311.138462z"></path><path d="M51.2 338.707692a23.630769 23.630769 0 0 1 23.630769 23.63077v291.446153a23.630769 23.630769 0 0 1-47.261538 0V362.338462a23.630769 23.630769 0 0 1 23.630769-23.63077z"></path></svg>
