<svg t="1685100807990" class="icon" viewBox="0 0 1024 1024" version="1.1" xmlns="http://www.w3.org/2000/svg" p-id="30158" width="64" height="64"><path d="M512 796.26c-158.04 0-285.35-129.51-285.35-285.35S353.96 225.55 512 225.55 797.35 350.67 797.35 510.9 670.04 796.26 512 796.26z m0 21.95c-170.2 0-307.3-139.47-307.3-307.3S341.8 203.6 512 203.6s307.3 134.74 307.3 307.3S682.2 818.21 512 818.21zM149.82 513.1c0-2.2 0-2.2 0 0 0-15.37 2.2-30.73 2.2-46.1h-87.8c-17.56 0-35.12 17.56-35.12 35.12v15.37c0 19.76 17.56 37.32 35.12 37.32h87.8c-2.2-13.18-2.2-28.54-2.2-41.71z m79.02-226.09a378.388 378.388 0 0 1 59.27-59.27l-30.73-30.73c-10.98-15.37-35.12-15.37-50.49 0l-8.78 8.78c-15.37 13.17-15.37 37.32 0 50.49l30.73 30.73z m568.51 0l28.54-32.93c15.37-10.98 15.37-35.12 0-50.49l-10.98-10.98c-10.98-15.37-35.12-15.37-50.49 0l-30.73 30.73c21.96 19.77 43.91 39.52 63.66 63.67zM512 148.72c15.37 0 28.54 2.2 43.9 2.2v-87.8c0-17.56-17.56-35.12-35.12-35.12h-15.37c-19.76 0-37.32 17.56-37.32 35.12v90c15.37-2.2 28.54-4.4 43.91-4.4zM957.59 467h-85.61c2.2 15.37 2.2 28.54 2.2 43.9 0 15.37 0 28.54-2.2 41.71h85.61c19.76 0 37.32-17.56 37.32-37.32v-15.37c0-15.36-17.56-32.92-37.32-32.92zM228.84 736.99l-28.54 30.73c-15.37 10.98-15.37 35.12 0 50.49l10.98 10.98c10.98 15.37 35.12 15.37 50.49 0l30.73-30.73c-24.15-17.57-46.1-37.32-63.66-61.47z m570.71-4.39c-17.56 24.15-39.51 46.1-63.66 63.66l30.73 30.73c10.98 15.37 35.12 15.37 50.49 0l13.17-13.17c15.37-10.98 15.37-35.12 0-50.49l-30.73-30.73zM512 873.08c-13.17 0-28.54 0-41.71-2.2v87.8c0 19.76 15.37 37.32 35.12 37.32h15.37c17.56 0 35.12-17.56 35.12-37.32v-87.8c-15.36 2.2-28.53 2.2-43.9 2.2z"></path></svg>
